HIERARCHY
ROOT Hips
{
	OFFSET -0.001795 -0.223333 0.028219
	CHANNELS 6 Xposition Yposition Zposition Zrotation Yrotation Xrotation
	JOINT LeftUpLeg
	{
		OFFSET 0.069520 -0.091406 -0.006815
		CHANNELS 3 Zrotation Yrotation Xrotation
		JOINT LeftLeg
		{
			OFFSET 0.034277 -0.375199 -0.004496
			CHANNELS 3 Zrotation Yrotation Xrotation
			JOINT LeftFoot
			{
				OFFSET -0.013596 -0.397961 -0.043693
				CHANNELS 3 Zrotation Yrotation Xrotation
				JOINT LeftToe
				{
					OFFSET 0.026358 -0.055791 0.119288
					CHANNELS 3 Zrotation Yrotation Xrotation
					End Site
					{
						OFFSET 0.000000 0.000000 0.000000
					}
				}
			}
		}
	}
	JOINT RightUpLeg
	{
		OFFSET -0.067670 -0.090522 -0.004320
		CHANNELS 3 Zrotation Yrotation Xrotation
		JOINT RightLeg
		{
			OFFSET -0.038290 -0.382569 -0.008850
			CHANNELS 3 Zrotation Yrotation Xrotation
			JOINT RightFoot
			{
				OFFSET 0.015774 -0.398415 -0.042312
				CHANNELS 3 Zrotation Yrotation Xrotation
				JOINT RightToe
				{
					OFFSET -0.025372 -0.048144 0.123348
					CHANNELS 3 Zrotation Yrotation Xrotation
					End Site
					{
						OFFSET 0.000000 0.000000 0.000000
					}
				}
			}
		}
	}
	JOINT Spine
	{
		OFFSET -0.002533 0.108963 -0.026696
		CHANNELS 3 Zrotation Yrotation Xrotation
		JOINT Spine1
		{
			OFFSET 0.005487 0.135180 0.001092
			CHANNELS 3 Zrotation Yrotation Xrotation
			JOINT Spine2
			{
				OFFSET 0.001457 0.052922 0.025425
				CHANNELS 3 Zrotation Yrotation Xrotation
				JOINT Neck
				{
					OFFSET -0.002778 0.213870 -0.042857
					CHANNELS 3 Zrotation Yrotation Xrotation
					JOINT Head
					{
						OFFSET 0.005152 0.064970 0.051349
						CHANNELS 3 Zrotation Yrotation Xrotation
						End Site
						{
							OFFSET 0.000000 0.000000 0.000000
						}
					}
				}
				JOINT LeftShoulder
				{
					OFFSET 0.078845 0.121749 -0.034090
					CHANNELS 3 Zrotation Yrotation Xrotation
					JOINT LeftArm
					{
						OFFSET 0.090977 0.030469 -0.008868
						CHANNELS 3 Zrotation Yrotation Xrotation
						JOINT LeftForeArm
						{
							OFFSET 0.259612 -0.012772 -0.027456
							CHANNELS 3 Zrotation Yrotation Xrotation
							JOINT LeftHand
							{
								OFFSET 0.249234 0.008986 -0.001171
								CHANNELS 3 Zrotation Yrotation Xrotation
								End Site
								{
									OFFSET 0.000000 0.000000 0.000000
								}
							}
						}
					}
				}
				JOINT RightShoulder
				{
					OFFSET -0.081759 0.118833 -0.038615
					CHANNELS 3 Zrotation Yrotation Xrotation
					JOINT RightArm
					{
						OFFSET -0.096012 0.032551 -0.009143
						CHANNELS 3 Zrotation Yrotation Xrotation
						JOINT RightForeArm
						{
							OFFSET -0.253742 -0.013329 -0.021401
							CHANNELS 3 Zrotation Yrotation Xrotation
							JOINT RightHand
							{
								OFFSET -0.255298 0.007772 -0.005559
								CHANNELS 3 Zrotation Yrotation Xrotation
								End Site
								{
									OFFSET 0.000000 0.000000 0.000000
								}
							}
						}
					}
				}
			}
		}
	}
}
MOTION
Frames: 13
Frame Time: 0.050000
-0.704937 0.219695 0.903807 -6.012614 -39.617297 -76.729342 5.224480 6.108695 -41.652932 29.741503 -28.429166 94.750554 -11.030731 -37.386683 -11.445325 0.000000 0.000000 0.000000 -7.928820 7.866019 -41.614348 35.800681 -15.290772 79.469167 -7.086605 -18.238496 24.911451 0.000000 0.000000 0.000000 -3.715415 9.159115 -42.925540 2.929992 -0.937145 7.943910 0.172757 -1.677605 46.309707 4.940238 -5.373443 -15.897691 0.000000 0.000000 0.000000 12.209824 -0.418649 -1.461485 -75.660503 17.178379 -19.637590 -86.276288 -60.406768 67.712234 0.000000 0.000000 0.000000 -17.197610 1.243520 2.405490 45.912203 8.291356 -7.212949 171.369264 66.228751 162.584990 0.000000 0.000000 0.000000
-0.705331 0.221426 0.909989 -6.771143 -38.938901 -76.949169 3.806712 5.107448 -42.210164 28.699639 -27.842623 95.094301 -13.155129 -35.894730 -6.681766 0.000000 0.000000 0.000000 -10.099702 6.334809 -39.964546 36.091030 -16.256727 81.945415 -6.590144 -17.115758 17.783343 0.000000 0.000000 0.000000 -4.622983 8.334842 -42.920066 2.784462 -0.992882 6.192556 0.856234 -1.802098 46.900344 4.435213 -4.743257 -18.354811 0.000000 0.000000 0.000000 15.134415 -0.267999 -1.830687 -77.832187 16.352507 -18.910339 -89.504528 -61.441884 71.469099 0.000000 0.000000 0.000000 -16.866374 -0.692438 2.012250 51.236881 8.533175 -8.253971 159.685593 65.602613 145.628403 0.000000 0.000000 0.000000
-0.705567 0.221359 0.915945 -7.572541 -39.228595 -76.826491 2.518680 4.406199 -42.862604 29.021612 -28.311590 95.588634 -13.781713 -34.049434 -3.986463 0.000000 0.000000 0.000000 -10.760966 5.597914 -38.350348 36.299187 -16.242964 82.697835 -7.289187 -18.229785 15.118533 0.000000 0.000000 0.000000 -4.810884 8.257334 -43.303279 2.775057 -1.045215 5.196173 1.070590 -4.286513 46.235829 1.350101 -2.874984 -20.406446 0.000000 0.000000 0.000000 17.606940 0.504061 -2.608718 -82.743105 16.727038 -18.092629 -95.523934 -61.506615 77.675679 0.000000 0.000000 0.000000 -16.489587 -1.282577 2.274309 55.767337 5.949167 -10.954492 146.835160 62.567378 122.423964 0.000000 0.000000 0.000000
-0.705417 0.222436 0.921342 -8.422004 -39.241072 -76.383290 2.018045 4.040193 -42.899544 27.465747 -27.037666 96.693586 -12.715406 -32.356335 -4.601251 0.000000 0.000000 0.000000 -11.698149 5.086105 -37.761836 36.420670 -16.704350 83.650473 -7.853486 -19.155039 14.656298 0.000000 0.000000 0.000000 -6.012310 7.540441 -43.395679 3.116145 -1.271300 3.677906 1.234233 -5.529412 46.717575 -0.660109 -1.740557 -22.429607 0.000000 0.000000 0.000000 19.056020 0.764369 -3.081593 -86.396380 13.448900 -14.573813 -98.784181 -66.439491 86.453124 0.000000 0.000000 0.000000 -15.707609 -1.641753 2.279610 60.453767 3.691684 -13.808128 137.180741 61.834277 107.920639 0.000000 0.000000 0.000000
-0.705089 0.223788 0.925354 -8.865100 -38.926308 -76.036927 1.781068 3.848947 -43.300380 26.362712 -26.580111 98.090357 -10.801779 -30.081275 -6.340225 0.000000 0.000000 0.000000 -10.956347 4.922518 -36.485513 35.837602 -16.561678 85.037089 -9.152956 -21.855462 9.707495 0.000000 0.000000 0.000000 -7.025478 6.892030 -43.518758 2.865365 -1.198475 2.363650 1.406587 -6.574427 46.925779 -1.602858 -1.290608 -23.973979 0.000000 0.000000 0.000000 21.137972 0.929858 -3.544992 -89.836509 12.005832 -12.192084 -109.343535 -69.470402 100.896006 0.000000 0.000000 0.000000 -15.887445 -2.010108 2.414889 63.359166 0.024076 -17.069890 127.032398 59.097701 90.833297 0.000000 0.000000 0.000000
-0.704284 0.231985 0.927822 -10.912993 -38.717048 -74.639680 3.342708 4.473056 -42.899117 23.735707 -25.520923 99.934399 -9.301813 -28.361115 -8.003625 0.000000 0.000000 0.000000 -10.386389 4.691010 -35.261391 36.918716 -17.918120 83.634819 -10.272420 -23.761669 11.072284 0.000000 0.000000 0.000000 -8.653307 5.715544 -43.037059 3.738334 -1.628747 2.040731 1.175089 -7.770351 45.572034 -1.800268 -1.212481 -25.927541 0.000000 0.000000 0.000000 23.765556 2.202715 -4.210590 -93.571186 12.014037 -10.687145 -115.303738 -70.556838 107.977578 0.000000 0.000000 0.000000 -16.533314 -1.992328 2.730648 64.747535 -2.228916 -19.046715 119.590809 57.637825 79.625853 0.000000 0.000000 0.000000
-0.702351 0.236766 0.928774 -12.291032 -38.135330 -73.843625 4.883010 4.871888 -41.714106 20.085093 -22.076341 100.805621 -6.206249 -25.488374 -12.522420 0.000000 0.000000 0.000000 -9.480501 4.603161 -34.338198 35.441296 -17.730997 85.044422 -10.246984 -24.006072 8.755406 0.000000 0.000000 0.000000 -10.472819 4.266232 -41.822922 4.049589 -1.794833 1.053108 1.970645 -8.157587 45.341598 -2.694986 -0.689217 -25.828327 0.000000 0.000000 0.000000 24.311211 2.695324 -4.330552 -92.554864 12.687239 -10.690995 -126.339168 -70.419982 120.940134 0.000000 0.000000 0.000000 -14.833096 -2.420055 2.309913 64.541406 -4.238183 -19.955673 120.798718 57.040144 79.856166 0.000000 0.000000 0.000000
-0.698069 0.244588 0.928700 -13.416383 -37.847452 -72.865705 7.013161 5.610662 -40.004366 16.888286 -18.373318 100.785428 -4.032209 -23.066620 -15.787530 0.000000 0.000000 0.000000 -8.569786 4.447881 -32.812454 35.010235 -17.373883 84.301823 -10.598624 -24.576218 9.357027 0.000000 0.000000 0.000000 -12.120132 3.399879 -41.928798 5.047428 -2.260032 2.077241 2.000644 -8.648676 43.802437 -2.774562 -0.608609 -25.374869 0.000000 0.000000 0.000000 25.676299 4.036713 -4.561289 -89.860101 15.086091 -11.773567 -130.789764 -67.218944 123.436994 0.000000 0.000000 0.000000 -14.039677 -2.338971 2.194236 64.344078 -4.255115 -19.697021 122.586345 60.052643 85.648175 0.000000 0.000000 0.000000
-0.691029 0.249031 0.928686 -14.488411 -37.392892 -71.872114 8.315464 5.867466 -38.368750 13.189215 -13.887243 101.111647 -0.591273 -18.602909 -20.993556 0.000000 0.000000 0.000000 -7.998627 4.221749 -31.358707 32.583821 -15.334304 84.343522 -9.071237 -21.873777 7.478962 0.000000 0.000000 0.000000 -13.668271 2.577080 -41.978242 5.393325 -2.431268 2.507576 2.689433 -8.999637 43.361479 -3.926643 0.097453 -24.310977 0.000000 0.000000 0.000000 26.405351 5.343698 -4.792289 -87.097462 18.880411 -14.416032 -131.316410 -62.103648 119.672480 0.000000 0.000000 0.000000 -12.128770 -1.675211 1.890191 63.019971 -2.513683 -17.758578 130.277950 60.773541 95.510405 0.000000 0.000000 0.000000
-0.681980 0.253847 0.929687 -13.979832 -37.015464 -71.673943 8.902076 5.799361 -36.376938 11.038558 -9.803390 99.755147 0.645312 -15.647303 -22.190813 0.000000 0.000000 0.000000 -7.736044 4.117598 -30.526034 29.473161 -12.020584 84.822704 -7.716090 -19.172623 9.005065 0.000000 0.000000 0.000000 -14.180405 2.739110 -43.775531 5.503276 -2.498822 4.467088 2.899572 -8.043986 43.083564 -4.074514 0.451918 -23.453934 0.000000 0.000000 0.000000 28.032383 6.878813 -4.806287 -83.499855 23.861083 -18.449340 -133.033989 -53.089786 113.170555 0.000000 0.000000 0.000000 -10.736187 -0.689007 1.692124 63.765880 0.101025 -15.938054 142.113930 62.484810 114.954442 0.000000 0.000000 0.000000
-0.673839 0.259278 0.931957 -14.839066 -36.118605 -70.442889 8.736296 5.092456 -34.202361 9.677790 -7.502944 97.406292 2.284065 -13.574023 -25.685392 0.000000 0.000000 0.000000 -8.241648 3.726992 -29.850463 27.136666 -10.001668 84.167073 -5.361455 -14.741234 10.823105 0.000000 0.000000 0.000000 -15.088588 2.045649 -43.699438 5.569106 -2.552024 4.332916 3.228032 -7.043515 42.738266 -4.254316 0.832765 -22.015575 0.000000 0.000000 0.000000 29.980477 8.205856 -4.738137 -82.616667 30.678789 -23.995263 -134.214679 -44.198901 103.610567 0.000000 0.000000 0.000000 -10.023362 0.233850 1.692234 65.644532 2.945506 -14.360810 149.221738 64.867083 129.022005 0.000000 0.000000 0.000000
-0.668974 0.266072 0.935376 -14.821234 -35.865802 -69.673059 9.630762 5.255689 -32.720732 9.232393 -6.490224 96.749681 3.027111 -13.944768 -28.333054 0.000000 0.000000 0.000000 -7.511134 3.652863 -28.647745 24.918850 -7.347585 83.275166 -4.356300 -13.003245 11.369323 0.000000 0.000000 0.000000 -16.143428 1.771281 -44.935387 5.925676 -2.735888 5.500636 4.034394 -5.969047 41.869044 -3.323740 0.445693 -22.824412 0.000000 0.000000 0.000000 31.271926 7.471943 -4.304059 -79.288239 35.959925 -27.553073 -137.623466 -36.676918 98.595463 0.000000 0.000000 0.000000 -11.039095 0.796495 1.957769 69.562247 5.764673 -13.487199 158.053124 64.678287 144.741948 0.000000 0.000000 0.000000
-0.667342 0.273248 0.939577 -16.317156 -35.297828 -68.410026 10.624938 5.247473 -31.085075 7.767326 -4.951805 95.685008 2.828313 -15.219106 -28.903799 0.000000 0.000000 0.000000 -6.616677 3.554720 -27.545469 23.541547 -6.478724 82.978869 -2.402993 -9.607764 12.776687 0.000000 0.000000 0.000000 -17.608145 0.573940 -43.306695 6.206106 -2.873998 4.075271 4.698278 -4.982387 41.824302 -2.103020 -0.141546 -24.160266 0.000000 0.000000 0.000000 33.533664 8.895148 -4.184968 -77.307739 41.513990 -30.482305 -139.075605 -29.604014 88.687985 0.000000 0.000000 0.000000 -11.562150 1.129220 2.112332 74.398525 8.685274 -12.531427 164.677340 63.549194 156.852012 0.000000 0.000000 0.000000
